<svg width="56" height="56" viewBox="0 0 56 56" fill="none" xmlns="http://www.w3.org/2000/svg">
<rect width="56" height="56" rx="16" fill="#6A00C7" fill-opacity="0.1"/>
<path d="M21.75 41.4375L19.75 39.9375L23 35.5938V28.9375C23 28.2917 23.0521 27.5885 23.1562 26.8281C23.2604 26.0677 23.4167 25.3646 23.625 24.7188L21.75 25.75V30.1875H19.25V24.3125L24.75 21.1875C25.2708 20.8958 25.724 20.6719 26.1094 20.5156C26.4948 20.3594 26.8542 20.2812 27.1875 20.2812C27.7083 20.2812 28.1823 20.5052 28.6094 20.9531C29.0365 21.401 29.5312 22.1042 30.0938 23.0625C30.7604 24.1875 31.3646 25.0312 31.9062 25.5938C32.4479 26.1562 33.0312 26.5833 33.6562 26.875C33.8854 26.7083 34.0833 26.5938 34.25 26.5312C34.4167 26.4688 34.6146 26.4375 34.8438 26.4375C35.3646 26.4375 35.8125 26.625 36.1875 27C36.5625 27.375 36.75 27.8125 36.75 28.3125V41.4375H35.5V28.3125C35.5 28.1458 35.4375 28 35.3125 27.875C35.1875 27.75 35.0417 27.6875 34.875 27.6875C34.7083 27.6875 34.5625 27.75 34.4375 27.875C34.3125 28 34.25 28.1458 34.25 28.3125V29.875H33V29.2812C31.875 28.8021 31 28.2656 30.375 27.6719C29.75 27.0781 29.1979 26.2812 28.7188 25.2812C28.4896 25.8646 28.3073 26.5781 28.1719 27.4219C28.0365 28.2656 27.9896 29.0625 28.0312 29.8125L30.5 33.3125V41.4375H28V35.1875L25.7812 32L25.5 36.4375L21.75 41.4375ZM28.625 19.5625C27.9375 19.5625 27.349 19.3177 26.8594 18.8281C26.3698 18.3385 26.125 17.75 26.125 17.0625C26.125 16.375 26.3698 15.7865 26.8594 15.2969C27.349 14.8073 27.9375 14.5625 28.625 14.5625C29.3125 14.5625 29.901 14.8073 30.3906 15.2969C30.8802 15.7865 31.125 16.375 31.125 17.0625C31.125 17.75 30.8802 18.3385 30.3906 18.8281C29.901 19.3177 29.3125 19.5625 28.625 19.5625Z" fill="#6A00C7"/>
</svg>
