<svg width="25" height="27" viewBox="0 0 25 27" fill="none" xmlns="http://www.w3.org/2000/svg">
<path d="M17.5 26.25C17.1458 26.25 16.849 26.1302 16.6094 25.8906C16.3698 25.651 16.25 25.3542 16.25 25C16.25 24.6458 16.3698 24.349 16.6094 24.1094C16.849 23.8698 17.1458 23.75 17.5 23.75H21.25V22.5H17.5C17.1458 22.5 16.849 22.3802 16.6094 22.1406C16.3698 21.901 16.25 21.6042 16.25 21.25C16.25 20.8958 16.3698 20.599 16.6094 20.3594C16.849 20.1198 17.1458 20 17.5 20H21.25V18.75H17.5C17.1458 18.75 16.849 18.6302 16.6094 18.3906C16.3698 18.151 16.25 17.8542 16.25 17.5C16.25 17.1458 16.3698 16.849 16.6094 16.6094C16.849 16.3698 17.1458 16.25 17.5 16.25H21.25V15H17.5C17.1458 15 16.849 14.8802 16.6094 14.6406C16.3698 14.401 16.25 14.1042 16.25 13.75C16.25 13.3958 16.3698 13.099 16.6094 12.8594C16.849 12.6198 17.1458 12.5 17.5 12.5H21.25V11.25H17.5C17.1458 11.25 16.849 11.1302 16.6094 10.8906C16.3698 10.651 16.25 10.3542 16.25 10C16.25 9.64583 16.3698 9.34896 16.6094 9.10938C16.849 8.86979 17.1458 8.75 17.5 8.75H21.25V7.5H17.5C17.1458 7.5 16.849 7.38021 16.6094 7.14062C16.3698 6.90104 16.25 6.60417 16.25 6.25C16.25 5.89583 16.3698 5.59896 16.6094 5.35938C16.849 5.11979 17.1458 5 17.5 5H22.5C23.1875 5 23.776 5.24479 24.2656 5.73438C24.7552 6.22396 25 6.8125 25 7.5V23.75C25 24.4375 24.7552 25.026 24.2656 25.5156C23.776 26.0052 23.1875 26.25 22.5 26.25H17.5ZM7.5 16.25C8.875 16.25 10.0521 15.5729 11.0312 14.2188C12.0104 12.8646 12.5 11.25 12.5 9.375C12.5 7.5 12.0104 5.88542 11.0312 4.53125C10.0521 3.17708 8.875 2.5 7.5 2.5C6.125 2.5 4.94792 3.17708 3.96875 4.53125C2.98958 5.88542 2.5 7.5 2.5 9.375C2.5 11.25 2.98958 12.8646 3.96875 14.2188C4.94792 15.5729 6.125 16.25 7.5 16.25ZM7.5 26.25C6.5 26.25 5.67708 25.8802 5.03125 25.1406C4.38542 24.401 4.13542 23.5312 4.28125 22.5312L4.78125 18.125C3.36458 17.4375 2.21354 16.3073 1.32812 14.7344C0.442708 13.1615 0 11.375 0 9.375C0 6.77083 0.729167 4.55729 2.1875 2.73438C3.64583 0.911458 5.41667 0 7.5 0C9.58333 0 11.3542 0.911458 12.8125 2.73438C14.2708 4.55729 15 6.77083 15 9.375C15 11.375 14.5573 13.1615 13.6719 14.7344C12.7865 16.3073 11.6354 17.4375 10.2188 18.125L10.7188 22.5312C10.8646 23.5312 10.6146 24.401 9.96875 25.1406C9.32292 25.8802 8.5 26.25 7.5 26.25Z" fill="#2A0054"/>
</svg>
